<?xml version="1.0" encoding="UTF-8" standalone="no"?>
<!-- Created with Inkscape (http://www.inkscape.org/) -->

<svg
   width="108.64983mm"
   height="54.324917mm"
   viewBox="0 0 108.64983 54.324917"
   version="1.1"
   id="svg1"
   xml:space="preserve"
   inkscape:version="1.3.2 (091e20e, 2023-11-25, custom)"
   sodipodi:docname="BlockLite_Main.svg"
   xmlns:inkscape="http://www.inkscape.org/namespaces/inkscape"
   xmlns:sodipodi="http://sodipodi.sourceforge.net/DTD/sodipodi-0.dtd"
   xmlns="http://www.w3.org/2000/svg"
   xmlns:svg="http://www.w3.org/2000/svg"><sodipodi:namedview
     id="namedview1"
     pagecolor="#ffffff"
     bordercolor="#000000"
     borderopacity="0.25"
     inkscape:showpageshadow="2"
     inkscape:pageopacity="0.0"
     inkscape:pagecheckerboard="0"
     inkscape:deskcolor="#d1d1d1"
     inkscape:document-units="mm"
     inkscape:zoom="0.7402988"
     inkscape:cx="120.22173"
     inkscape:cy="558.55825"
     inkscape:window-width="1920"
     inkscape:window-height="1009"
     inkscape:window-x="-8"
     inkscape:window-y="-8"
     inkscape:window-maximized="1"
     inkscape:current-layer="layer1" /><defs
     id="defs1" /><g
     inkscape:label="Layer 1"
     inkscape:groupmode="layer"
     id="layer1"
     transform="translate(-48.963899,-161.18772)"><g
       id="g9"><rect
         style="fill:#ffffff;fill-opacity:1;stroke:none;stroke-width:0.593795;stroke-linecap:round;stroke-linejoin:round"
         id="rect21"
         width="108.64983"
         height="54.324913"
         x="48.963902"
         y="161.18773"
         ry="3.3001113" /><g
         id="g21"
         transform="translate(3.7527123,121.6056)"
         style="stroke:#000000"><g
           id="g11"
           style="stroke:#000000"><g
             id="g5"
             style="stroke:#000000"><path
               style="fill:#37abc8;fill-opacity:1;stroke:#000000;stroke-width:1;stroke-linecap:round;stroke-linejoin:round;stroke-dasharray:none;stroke-dashoffset:0;stroke-opacity:1"
               d="m 61.94471,58.499406 11.55055,-4.720574 c 0.89458,-0.289855 1.58534,-0.343165 2.37802,-0.125882 l 11.95823,4.657634 c 0.67279,0.245888 0.75706,1.092063 -0.20384,1.510584 l -12.0941,4.594693 c -0.43817,0.102186 -0.86088,0.223486 -1.56271,0 L 61.67292,59.506463 c -0.39042,-0.301032 -0.29421,-0.737429 0.27179,-1.007057 z"
               id="path3"
               sodipodi:nodetypes="ccccccccc" /><path
               style="fill:#37abc8;fill-opacity:1;stroke:#000000;stroke-width:1;stroke-linecap:round;stroke-linejoin:round;stroke-dasharray:none;stroke-dashoffset:0;stroke-opacity:1"
               d="m 62.27404,59.745934 11.52634,4.633284 c 0.77402,0.328091 1.17651,0.751358 1.31965,1.514588 l -0.15304,12.614559 c 0.0726,0.868834 -0.85484,1.695084 -1.8299,1.364945 l -11.3757,-4.858998 c -0.33358,-0.200347 -0.6814,-0.370976 -0.7725,-1.077757 l -0.002,-13.374384 c -0.0149,-0.741223 0.67894,-1.031892 1.28713,-0.816247 z"
               id="path4"
               sodipodi:nodetypes="cccccccccc" /><path
               style="fill:#2c89a0;fill-opacity:1;stroke:#000000;stroke-width:1;stroke-linecap:round;stroke-linejoin:round;stroke-dasharray:none;stroke-dashoffset:0;stroke-opacity:1"
               d="M 87.48894,59.85099 76.4686,64.037748 c -0.78494,0.318891 -1.19582,0.737313 -1.34857,1.498657 l -0.15304,12.97196 c -0.0598,0.805781 0.7632,1.731803 1.83266,1.386131 l 11.20549,-4.778453 c 0.33893,-0.196365 0.69191,-0.362856 0.79149,-1.068379 l -0.0172,-13.365498 c 0.01,-0.698443 -0.77426,-1.138848 -1.29061,-0.831186 z"
               id="path5"
               sodipodi:nodetypes="cccccccccc" /></g><g
             id="g10"
             transform="translate(2.16084,3.120271)"
             style="stroke:#000000"><path
               style="fill:#d98c82;fill-opacity:1;stroke:#000000;stroke-width:1;stroke-linecap:round;stroke-linejoin:round;stroke-dasharray:none;stroke-dashoffset:0;stroke-opacity:1"
               d="m 109.07275,55.379135 11.55055,-4.720574 c 0.89458,-0.289855 1.58534,-0.343165 2.37802,-0.125882 l 11.95823,4.657634 c 0.67279,0.245888 0.75706,1.092063 -0.20384,1.510584 l -12.0941,4.594693 c -0.43817,0.102186 -0.86088,0.223486 -1.56271,0 l -12.29794,-4.909398 c -0.39042,-0.301032 -0.29421,-0.737429 0.27179,-1.007057 z"
               id="path8"
               sodipodi:nodetypes="ccccccccc" /><path
               style="fill:#d98c82;fill-opacity:1;stroke:#000000;stroke-width:1;stroke-linecap:round;stroke-linejoin:round;stroke-dasharray:none;stroke-dashoffset:0;stroke-opacity:1"
               d="m 109.40208,56.625663 11.52634,4.633284 c 0.77402,0.328091 1.17651,0.751358 1.31965,1.514588 l -0.15304,12.614559 c 0.0726,0.868834 -0.85484,1.695084 -1.8299,1.364945 l -11.3757,-4.858998 c -0.33358,-0.200347 -0.6814,-0.370976 -0.7725,-1.077757 l -0.002,-13.374384 c -0.0149,-0.741223 0.67894,-1.031892 1.28713,-0.816247 z"
               id="path9"
               sodipodi:nodetypes="cccccccccc" /><path
               style="fill:#d9796b;fill-opacity:1;stroke:#000000;stroke-width:1;stroke-linecap:round;stroke-linejoin:round;stroke-dasharray:none;stroke-dashoffset:0;stroke-opacity:1"
               d="m 134.61698,56.730719 -11.02034,4.186758 c -0.78494,0.318891 -1.19582,0.737313 -1.34857,1.498657 l -0.15304,12.97196 c -0.0598,0.805781 0.7632,1.731803 1.83266,1.386131 l 11.20549,-4.778453 c 0.33893,-0.196365 0.69191,-0.362856 0.79149,-1.068379 l -0.0172,-13.365498 c 0.01,-0.698443 -0.77426,-1.138848 -1.29061,-0.831186 z"
               id="path10"
               sodipodi:nodetypes="cccccccccc" /></g></g><g
           id="g20"
           transform="translate(2.16084,3.120271)"
           style="stroke:#000000"><g
             id="g17"
             transform="translate(-2.0541638e-5)"
             style="stroke:#000000"><path
               style="fill:none;stroke:#000000;stroke-width:0.836;stroke-linecap:round;stroke-linejoin:round;stroke-dasharray:none;stroke-opacity:1"
               d="m 101.44962,65.45407 2.42741,0.03735 c 1.52801,0.03204 2.67097,-2.987111 0,-3.697143 l -3.51042,-0.03735 c -0.92793,0.274001 -1.52188,0.848594 -1.45645,2.016623"
               id="path11"
               sodipodi:nodetypes="ccccc" /><g
               id="g16"
               style="stroke:#000000;stroke-width:0.836;stroke-dasharray:none;stroke-opacity:1"
               transform="translate(0.00921789,-0.67522446)"><path
                 style="fill:none;stroke:#000000;stroke-width:0.836;stroke-linecap:round;stroke-linejoin:round;stroke-dasharray:none;stroke-opacity:1"
                 d="m 93.291741,66.129289 -2.427416,0.03735 c -1.528009,0.03204 -2.67097,-2.987111 0,-3.697143 l 3.510419,-0.03734 c 0.927934,0.274001 1.521878,0.848594 1.456449,2.016623"
                 id="path16"
                 sodipodi:nodetypes="ccccc" /></g></g><path
             style="fill:none;fill-opacity:1;stroke:#000000;stroke-width:0.836;stroke-linecap:round;stroke-linejoin:round;stroke-dasharray:none;stroke-dashoffset:0;stroke-opacity:1"
             d="m 94.098401,63.254106 c 0.01364,1.122592 0.750474,2.089978 1.853128,2.205416 l 2.728075,0.0028 c 1.313936,-0.01207 1.973206,-1.196378 1.972526,-2.208458"
             id="path20"
             sodipodi:nodetypes="cccc" /></g></g></g></g></svg>
